<svg width="16" height="16" viewBox="0 0 16 16" fill="none" xmlns="http://www.w3.org/2000/svg">
<g clip-path="url(#clip0_2_5)">
<path d="M0 8C0 5.87827 0.842854 3.84344 2.34315 2.34315C3.84344 0.842854 5.87827 0 8 0C10.1217 0 12.1566 0.842854 13.6569 2.34315C15.1571 3.84344 16 5.87827 16 8C16 10.1217 15.1571 12.1566 13.6569 13.6569C12.1566 15.1571 10.1217 16 8 16C5.87827 16 3.84344 15.1571 2.34315 13.6569C0.842854 12.1566 0 10.1217 0 8V8ZM6.29 10.907L9 8.972V10.5C9 10.6326 9.05268 10.7598 9.14645 10.8536C9.24021 10.9473 9.36739 11 9.5 11C9.63261 11 9.75979 10.9473 9.85355 10.8536C9.94732 10.7598 10 10.6326 10 10.5V5.5C10 5.36739 9.94732 5.24021 9.85355 5.14645C9.75979 5.05268 9.63261 5 9.5 5C9.36739 5 9.24021 5.05268 9.14645 5.14645C9.05268 5.24021 9 5.36739 9 5.5V7.028L6.29 5.093C6.21524 5.03977 6.12726 5.00814 6.03572 5.00159C5.94418 4.99503 5.8526 5.0138 5.77101 5.05583C5.68942 5.09786 5.62098 5.16154 5.57318 5.23988C5.52537 5.31823 5.50006 5.40822 5.5 5.5L5.5 10.5C5.50006 10.5918 5.52537 10.6818 5.57318 10.7601C5.62098 10.8385 5.68942 10.9021 5.77101 10.9442C5.8526 10.9862 5.94418 11.005 6.03572 10.9984C6.12726 10.9919 6.21524 10.9602 6.29 10.907Z" fill="#263238"/>
</g>
<defs>
<clipPath id="clip0_2_5">
<rect width="16" height="16" fill="white"/>
</clipPath>
</defs>
</svg>
