<svg xmlns="http://www.w3.org/2000/svg" x="0px" y="0px"
width="48" height="48"
viewBox="0 0 172 172"
style=" fill:#000000;"><g fill="none" fill-rule="nonzero" stroke="none" stroke-width="1" stroke-linecap="butt" stroke-linejoin="miter" stroke-miterlimit="10" stroke-dasharray="" stroke-dashoffset="0" font-family="none" font-weight="none" font-size="none" text-anchor="none" style="mix-blend-mode: normal"><path d="M0,172v-172h172v172z" fill="none"></path><g><path d="M136.67192,35.31733c-27.97867,-27.97867 -73.36158,-27.97867 -101.34025,0c-27.99658,27.993 -27.99658,73.37233 0,101.35458c27.97867,27.993 73.36158,27.993 101.34025,0c27.993,-27.98225 27.993,-73.36158 0,-101.35458z" fill="#34495e"></path><path d="M35.31375,136.66833c4.24267,4.24267 8.92967,7.76508 13.84958,10.72492l32.9595,-54.94325c-0.516,-0.30817 -1.01767,-0.66292 -1.45842,-1.118c-0.45508,-0.44075 -0.80983,-0.94242 -1.12158,-1.45842l-54.93967,32.9595c2.95983,4.9235 6.48225,9.60692 10.71058,13.83525zM136.67192,35.31733c-4.22833,-4.22833 -8.91533,-7.75075 -13.83525,-10.71058l-32.9595,54.94325c0.516,0.30817 1.01767,0.66292 1.45842,1.118c0.45508,0.44075 0.80983,0.94242 1.12158,1.45842l54.94325,-32.9595c-2.96342,-4.9235 -6.48583,-9.60692 -10.7285,-13.84958z" fill="#90a4ae"></path><path d="M108.8115,63.1885c-12.5775,-12.5775 -33.04908,-12.5775 -45.62658,0c-12.58825,12.5775 -12.58825,33.04908 0,45.62658c12.5775,12.58825 33.04908,12.58825 45.62658,0c12.5775,-12.5775 12.5775,-33.05267 0,-45.62658z" fill="#263238"></path><path d="M103.73392,68.26608c-9.79683,-9.79683 -25.671,-9.79683 -35.46783,0c-9.79683,9.79683 -9.79683,25.671 0,35.46783c9.79683,9.79683 25.671,9.79683 35.46783,0c9.79683,-9.79683 9.80042,-25.671 0,-35.46783zM80.93317,91.06683c-2.79858,-2.79858 -2.79858,-7.33508 0,-10.13367c2.79858,-2.79858 7.33508,-2.79858 10.13367,0c2.79858,2.79858 2.79858,7.33508 0,10.13367c-2.79858,2.79858 -7.33508,2.79858 -10.13367,0z" fill="#ffc107"></path></g></g></svg>
